{"title":"Georgia O'Keeffe 2009 480p HDRip XviD titler","uid":11024303,"size":1212201719,"categoryP":"video","categoryS":"movies","magnet":"?xt=urn:btih:23dfd47f81685e0b872d4bd93149f4e2c96d1d05&amp;dn=Georgia+O%27Keeffe+2009+480p+HDRip+XviD+titler&amp;tr=udp%3A%2F%2Ftracker.openbittorrent.com%3A80&amp;tr=udp%3A%2F%2Fopen.demonii.com%3A1337&amp;tr=udp%3A%2F%2Ftracker.coppersurfer.tk%3A6969&amp;tr=udp%3A%2F%2Fexodus.desync.com%3A6969","seeders":2,"leechers":0,"uploader":"movieZ.freak","files":4,"time":1410650077,"description":"SOURCE: Georgia O Keeffe 2009 1080i HDTV x264 HBOHD\n\n\n\n &lt;a href=&quot;\nhttp://www.imdb.com/title/tt1320286/&quot; rel=&quot;nofollow&quot; target=&quot;_NEW&quot;&gt;\nhttp://www.imdb.com/title/tt1320286/&lt;/a&gt;\n\n\n\n &lt;a href=&quot;\nhttp://www.rottentomatoes.com/m/georgia_okeeffe/&quot; rel=&quot;nofollow&quot; target=&quot;_NEW&quot;&gt;\nhttp://www.rottentomatoes.com/m/georgia_okeeffe/&lt;/a&gt;\n\n\n\n &lt;a href=&quot;\nhttp://en.wikipedia.org/wiki/Georgia_O%27Keeffe_%282009_film%29&quot; rel=&quot;nofollow&quot; target=&quot;_NEW&quot;&gt;\nhttp://en.wikipedia.org/wiki/Georgia_O%27Keeffe_%282009_film%29&lt;/a&gt;\n\n\n\n &lt;a href=&quot;\nhttp://en.wikipedia.org/wiki/Georgia_O%27Keeffe&quot; rel=&quot;nofollow&quot; target=&quot;_NEW&quot;&gt;\nhttp://en.wikipedia.org/wiki/Georgia_O%27Keeffe&lt;/a&gt;\n\n\n\n\nOFFICIAL WEBSITE:\n---------------------------\n &lt;a href=&quot;\nhttp://www.okeeffemuseum.org/&quot; rel=&quot;nofollow&quot; target=&quot;_NEW&quot;&gt;\nhttp://www.okeeffemuseum.org/&lt;/a&gt;\n\n\n\n\n- SAMPLE: Yes\n\n\n- SUBTITLE: English\n\n\n- LANGUAGE / AUDIO: English\n\n\n\nNOTE:\n-------------\n- If you like excellent drama performances by main actors like I do, this is for you.\n\n- Joan Allen is AMAZING and Jeremy Irons is... 'His Greatness' ... Jeremy Irons. :)\n\n- Good HDTV source with 'HBO-HD' logo (see screenshots or sample) stuck through the whole movie, if you don't like logos don't download.\n\n- Check the sample.\n\n- Enjoy!\n\n\n\n\nSCREENSHOTS:\n-------------------    &lt;a href=&quot;\nhttp://someimage.com/grTz&quot; rel=&quot;nofollow&quot; target=&quot;_NEW&quot;&gt;\nhttp://someimage.com/grTz&lt;/a&gt;\n\n\n\n\nDIRECTOR: Bob Balaban\n\n\n\nCAST: Joan Allen, Jeremy Irons, Ed Begley Jr., Kathleen Chalfant, Henry Simmons, Linda Emond,...\n\n\nPLOT:\n-----------\nJoan Allen stars as acclaimed artist Georgia O'Keefe in this made for television biopic from director Bob Balaban. Smitten with photographer Alfred Stieglitz (Jeremy Irons), O'Keefe is devastated to discover her beloved husband has strayed. A retreat to Taos, New Mexico, however, provided the painter with the inspiration for &quot;The Lawrence Tree,&quot; one of her most famous works. Ed Begley, Jr. and Tyne Daly co-star.\n\n\n************************************\n\n- Duration: 1h 25mn\n\n- Bit rate: 1731 Kbps\n\n- Res: 854 x 480\n\n- AR: 16:9\n\n- FPS: 25.000 fps\n\n- Audio: MP3, 2 channels, 128Kbps\n\n************************************\n\n\nGeneral\n--------------\nFormat : AVI\nFormat/Info : Audio Video Interleave\nFile size : 1.11 GiB\nDuration : 1h 25mn\nOverall bit rate : 1869 Kbps\nWriting library : VirtualDub build 35491\n\n\nVideo\n-----------\nFormat : MPEG-4 Visual\nFormat profile : Advanced Simple@L5\nFormat settings, BVOP : 2\nFormat settings, QPel : No\nFormat settings, GMC : No warppoints\nFormat settings, Matrix : Default (H.263)\nCodec ID : XVID\nCodec ID/Hint : XviD\nDuration : 1h 25mn\nBit rate : 1731 Kbps\nWidth : 854 pixels\nHeight : 480 pixels\nDisplay aspect ratio : 16:9\nFrame rate : 25.000 fps\nColor space : YUV\nChroma subsampling : 4:2:0\nBit depth : 8 bits\nScan type : Progressive\nCompression mode : Lossy\nBits/(Pixel*Frame) : 0.169\nStream size : 1.03 GiB (93%)\nWriting library : XviD 65\n\n\nAudio\n-----------\nFormat : MPEG Audio\nFormat version : Version 1\nFormat profile : Layer 3\nMode : Joint stereo\nMode extension : MS Stereo\nCodec ID : 55\nCodec ID/Hint : MP3\nDuration : 1h 25mn\nBit rate mode : Constant\nBit rate : 128 Kbps\nChannel(s) : 2 channels\nSampling rate : 48.0 KHz\nCompression mode : Lossy\nStream size : 77.9 MiB (7%)\nAlignment : Split accross interleaves\nInterleave, duration : 40 ms (1.00 video frame)\nInterleave, preload duration : 500 ms","torrent":{"xt":"urn:btih:23dfd47f81685e0b872d4bd93149f4e2c96d1d05","amp;dn":"Georgia+O%27Keeffe+2009+480p+HDRip+XviD+titler","amp;tr":["udp%3A%2F%2Ftracker.openbittorrent.com%3A80","udp%3A%2F%2Fopen.demonii.com%3A1337","udp%3A%2F%2Ftracker.coppersurfer.tk%3A6969","udp%3A%2F%2Fexodus.desync.com%3A6969"],"infoHash":"23dfd47f81685e0b872d4bd93149f4e2c96d1d05","infoHashBuffer":{"type":"Buffer","data":[35,223,212,127,129,104,94,11,135,45,75,217,49,73,244,226,201,109,29,5]},"announce":[],"urlList":[]}}